# xmcd
#
# Track frame offsets: 
#        182
#        15307
#        31887
#        47845
#
# Disc length: 891 seconds
#
# Revision: 5
# Processed by: cddbd v1.5.2PL0 Copyright (c) Steve Scherf et al.
# Submitted via: ExactAudioCopy v0.99pb4
#
DISCID=23037904
DTITLE=Gabrielle - Walk On By [CD Single)
DYEAR=1997
DGENRE=Soul
TTITLE0=Walk On By
TTITLE1=Walk On By (45% Novocaine Remix)
TTITLE2=Walk On By (Live From TFI Friday)
TTITLE3=Something To Talk About
EXTD=corrected by r.lokker@worldonline.nl YEAR: 1997
EXTT0=
EXTT1=
EXTT2=
EXTT3=
PLAYORDER=
